<?xml version="1.0" encoding="UTF-8" standalone="no"?>
<!-- Created with Inkscape (http://www.inkscape.org/) -->

<svg
   xmlns:dc="http://purl.org/dc/elements/1.1/"
   xmlns:cc="http://creativecommons.org/ns#"
   xmlns:rdf="http://www.w3.org/1999/02/22-rdf-syntax-ns#"
   xmlns:svg="http://www.w3.org/2000/svg"
   xmlns="http://www.w3.org/2000/svg"
   xmlns:xlink="http://www.w3.org/1999/xlink"
   xmlns:sodipodi="http://sodipodi.sourceforge.net/DTD/sodipodi-0.dtd"
   xmlns:inkscape="http://www.inkscape.org/namespaces/inkscape"
   version="1.0"
   width="1230"
   height="800"
   id="svg2"
   sodipodi:version="0.32"
   inkscape:version="0.48.4 r9939"
   sodipodi:docname="logo_asolisc_new.svg"
   inkscape:export-filename="/home/ferox/Pictures/SVG/Logo_SOLISC_github.png"
   inkscape:export-xdpi="10.609756"
   inkscape:export-ydpi="10.609756">
  <sodipodi:namedview
     inkscape:window-height="578"
     inkscape:window-width="1024"
     inkscape:pageshadow="2"
     inkscape:pageopacity="0.0"
     guidetolerance="10.0"
     gridtolerance="10.0"
     objecttolerance="10.0"
     borderopacity="1.0"
     bordercolor="#666666"
     pagecolor="#ffffff"
     id="base"
     inkscape:zoom="0.32"
     inkscape:cx="447.44095"
     inkscape:cy="487.68382"
     inkscape:window-x="0"
     inkscape:window-y="0"
     inkscape:current-layer="g3017"
     showgrid="false"
     inkscape:window-maximized="1"
     inkscape:snap-global="false">
    <inkscape:grid
       type="xygrid"
       id="grid5533"
       empspacing="5"
       visible="true"
       enabled="true"
       snapvisiblegridlinesonly="true" />
  </sodipodi:namedview>
  <defs
     id="defs4">
    <marker
       inkscape:stockid="SquareL"
       orient="auto"
       refY="0"
       refX="0"
       id="SquareL"
       style="overflow:visible">
      <path
         id="path3883"
         d="M -5,-5 -5,5 5,5 5,-5 -5,-5 z"
         style="fill-rule:evenodd;stroke:#000000;stroke-width:1pt"
         transform="scale(0.8,0.8)"
         inkscape:connector-curvature="0" />
    </marker>
  </defs>
  <g
     inkscape:groupmode="layer"
     id="layer5"
     inkscape:label="quarterly"
     style="display:inline"
     transform="translate(0,-252.36204)" />
  <g
     inkscape:groupmode="layer"
     id="layer4"
     inkscape:label="charges"
     style="display:inline"
     transform="translate(0,-252.36204)" />
  <g
     inkscape:groupmode="layer"
     id="layer6"
     inkscape:label="shield outline"
     style="display:inline"
     transform="translate(0,-252.36204)">
    <g
       id="g5519"
       transform="matrix(1.2761375,0,0,1.1664251,-4.7065913,233.50064)">
      <g
         style="fill:#000000;stroke:#000000;stroke-opacity:1;display:inline"
         transform="matrix(0.5504219,0.0960789,-0.08026879,0.5504219,-402.91141,183.68958)"
         inkscape:label="Layer 1"
         id="layer1-8">
        <g
           style="fill:#000000;stroke:#000000;stroke-opacity:1"
           id="g4775"
           inkscape:groupmode="layer"
           inkscape:label="Layer 1"
           transform="matrix(0.296042,0,0,0.296042,535.408,347.338)">
          <g
             style="fill:#000000;stroke:#000000;stroke-opacity:1"
             id="g4792"
             transform="matrix(1.73406,0,0,1.73406,-1397.93,-733.094)">
            <g
               style="fill:#000000;stroke:#000000;stroke-opacity:1"
               id="g2145"
               transform="matrix(7.9743612,0,0,7.9743612,88.050969,-2629.4725)">
              <g
                 id="g3017"
                 transform="matrix(0.99243808,8.8541553e-4,7.3970739e-4,0.99738133,4.6369394,3.9153383)">
                <path
                   inkscape:connector-curvature="0"
                   style="fill:#000000;fill-opacity:1;fill-rule:evenodd;stroke:#000000;stroke-width:1.42291331;stroke-linecap:butt;stroke-linejoin:miter;stroke-miterlimit:4;stroke-opacity:1;stroke-dasharray:none"
                   d="m 224.92277,333.51053 c 52.51551,10.83387 61.40345,-24.5134 131.54129,-5.32888 -11.95989,-45.53963 -86.09876,14.2431 -131.54129,5.32888 z"
                   id="path1325"
                   sodipodi:nodetypes="ccc" />
                <path
                   inkscape:connector-curvature="0"
                   style="fill:#000000;fill-opacity:1;fill-rule:evenodd;stroke:#000000;stroke-width:1px;stroke-linecap:butt;stroke-linejoin:miter;stroke-opacity:1"
                   d="m 360.92509,326.48708 c 8.14074,-55.59801 72.17543,-35.52492 99.03824,-71.26193 -35.7536,35.5569 -69.97259,30.48735 -99.03824,71.26193 z"
                   id="path1327"
                   sodipodi:nodetypes="ccc" />
                <path
                   inkscape:connector-curvature="0"
                   style="fill:#000000;fill-opacity:1;fill-rule:evenodd;stroke:#000000;stroke-width:1px;stroke-linecap:butt;stroke-linejoin:miter;stroke-opacity:1"
                   d="m 380.0861,395.48482 c 20.14361,-47.44923 69.71538,-82.02033 84.391,-131.69791 -13.60613,61.55768 -67.36145,93.07943 -84.391,131.69791 z"
                   id="path1329"
                   sodipodi:nodetypes="ccc" />
                <path
                   inkscape:connector-curvature="0"
                   style="fill:#000000;fill-opacity:1;fill-rule:evenodd;stroke:#000000;stroke-width:1px;stroke-linecap:butt;stroke-linejoin:miter;stroke-opacity:1"
                   d="m 230.63499,342.48236 c 26.02489,30.45567 81.76392,31.86717 119.19115,64.2479 -26.39092,-33.85121 -83.76613,-38.68399 -119.19115,-64.2479 z"
                   id="path1331"
                   sodipodi:nodetypes="ccc" />
                <path
                   inkscape:connector-curvature="0"
                   style="fill:#000000;fill-opacity:1;fill-rule:nonzero;stroke:#000000;stroke-opacity:1"
                   id="path2139"
                   d="m 350.26738,412.88774 c 1.29465,5.84984 2.20558,13.56273 -0.90904,18.86559 -6.83052,9.37793 -19.73895,10.78456 -30.12615,13.94589 -2.34502,0.74633 -4.68155,1.51438 -7.06381,2.13505 l -0.0375,-3.50716 c 2.37648,-0.6248 4.70854,-1.39269 7.05015,-2.13493 10.2945,-3.12343 23.21578,-4.51036 29.86259,-13.93299 2.05516,-3.67044 2.0601,-3.27789 0.88941,-11.88131 l 0.33429,-3.49014 z" />
                <path
                   inkscape:connector-curvature="0"
                   style="fill:#000000;fill-opacity:1;fill-rule:nonzero;stroke:#000000;stroke-opacity:1"
                   id="path2143"
                   d="m 376.96507,404.57623 c 1.3147,9.85511 4.68751,18.09757 14.69215,21.55927 5.72195,1.3319 11.6483,1.39215 17.49135,1.58416 l -0.0634,3.50645 c -5.87828,-0.1931 -11.83715,-0.26 -17.59582,-1.58796 -9.81389,-3.3408 -14.20992,-11.56968 -14.85821,-21.57175 l 0.33429,-3.49016 z" />
                <path
                   sodipodi:nodetypes="ccccccccsscccccccsccccccccccccccccscccccccccccccccccccccccccccccccccccccccsscscccccccc"
                   inkscape:connector-curvature="0"
                   d="m 543.69258,408.58552 c -3.21123,0.40764 -6.41128,0.92493 -9.61209,1.42356 -3.01778,0.47181 -6.036,0.94051 -9.05447,1.40722 -3.01474,0.47283 -6.03131,0.92901 -9.05042,1.36624 -4.23444,0.59857 -8.45929,1.27453 -12.68441,1.94659 -3.62355,0.63578 -7.28966,-0.19018 -10.30785,-1.61085 -2.228,-1.57864 -3.86628,-3.53791 -6.72196,-4.39151 -3.41756,-0.48347 -6.50784,1.09272 -9.46376,2.52628 -5.94095,3.82538 -15.11219,9.65519 12.29035,-8.19921 0.51073,-0.33277 -0.94405,0.74241 -1.40836,1.12029 -1.40691,1.14507 -1.2408,1.02683 -2.54296,2.2143 -6.25396,6.92798 -15.10967,11.82028 -23.48813,16.85019 -2.56758,1.44115 -5.48178,2.14395 -8.39266,2.73977 -3.4883,0.29513 -6.27854,-0.89789 -8.44154,-2.91977 -1.82016,-1.47784 -3.70781,-2.78915 -6.20676,-3.41818 -2.53279,-0.3359 -5.26205,-0.2483 -7.76967,0.52619 -10.43487,4.64641 5.91325,-5.03772 9.69767,-7.54849 -1.17193,0.83877 -1.31276,0.90491 -2.42081,1.84422 -8.31123,7.04543 -7.6764,5.89939 -22.6543,15.80288 -3.22277,1.83841 -6.79315,2.07418 -10.42761,2.37323 -3.60633,-0.15067 -7.19558,-0.37589 -10.8228,-0.37234 -3.60839,-0.0186 -7.10953,0.34354 -10.59698,1.34628 -2.87392,0.75826 -5.70292,1.46483 -8.49101,2.45126 -2.75223,1.05166 -5.41738,2.19139 -8.29276,2.9777 -2.9417,0.74918 -5.9476,1.18846 -8.94133,1.653 -3.14952,0.48805 -6.29963,0.97144 -9.44961,1.45576 -2.99476,0.46956 -5.99269,0.91331 -8.98952,1.36616 -3.51924,0.34556 -6.85731,1.49602 -10.26088,2.38206 -2.97616,0.75951 -6.0047,1.28683 -9.03229,1.78725 -3.45106,0.5332 -6.90545,1.03931 -10.35627,1.57576 -3.53896,0.52567 -7.07339,1.08733 -10.60877,1.64086 -3.19236,0.28481 -6.07186,-0.24008 -8.75398,-1.46263 -2.32668,-1.33916 -4.9092,-2.36078 -7.42944,-3.44721 -14.71441,-0.16482 -5.82733,-1.38243 5.25498,-8.60056 0.50252,-0.32656 -0.94115,0.71851 -1.38979,1.09645 -1.39209,1.17272 -2.61633,2.44244 -3.80797,3.7512 -6.1415,6.9363 -14.56315,13.34609 -23.96801,16.6988 -3.72063,0.77853 -7.23433,-0.22656 -10.74068,-0.82186 -3.91413,-0.74365 -7.63366,-1.86147 -11.35768,-3.00909 -3.15688,-0.99309 -5.1382,-0.58826 -8.35418,0.21016 -3.16045,0.33014 -5.56502,2.07082 -8.38482,3.18892 -2.49961,1.66908 -5.25557,3.03782 -7.68723,4.78154 -13.2917,11.5469 -23.99632,-8.40275 -4.2249,-7.46223 3.01815,-0.46811 6.04339,-0.93708 9.01502,-1.66233 3.54924,-0.93264 7.06662,-2.06876 10.0053,-4.13062 2.58601,-1.59676 5.18716,-3.22671 7.9809,-4.5371 2.81092,-1.33686 5.61197,-2.46896 8.77296,-2.94579 3.21941,-0.59955 6.18389,-0.45765 9.11072,0.60704 20.3436,6.65684 27.88121,-1.62018 6.99776,12.50567 -0.39792,0.27011 0.82571,-0.50915 1.20868,-0.7942 0.0448,-0.0333 2.23536,-1.87513 2.26516,-1.90391 0.39147,-0.37786 0.72554,-0.79303 1.08831,-1.18954 5.95826,-7.66081 15.45783,-13.46841 24.56178,-18.15038 3.53377,-1.07693 6.84551,-0.71479 10.0709,0.50774 2.53732,1.07419 5.07837,2.15123 7.48937,3.39601 2.45328,0.94133 5.0252,1.18496 7.81922,0.7269 3.52277,-0.53029 7.04683,-1.05091 10.56653,-1.6053 3.47227,-0.52355 6.94227,-1.06257 10.40404,-1.66239 2.96478,-0.51977 5.92366,-1.09147 8.83107,-1.87452 3.44661,-0.91255 6.8883,-1.83971 10.44444,-2.23404 3.0082,-0.46966 6.01525,-0.94772 9.02669,-1.39261 3.13385,-0.47272 6.26905,-0.93617 9.39874,-1.44114 2.94376,-0.49652 5.90136,-1.00886 8.7591,-1.88005 2.78909,-0.9169 5.42718,-2.13972 8.22983,-3.02511 2.82242,-0.91394 5.74276,-1.51989 8.60475,-2.31683 3.60564,-0.78798 7.2621,-0.8968 10.90333,-0.88144 3.59563,0.044 7.18246,0.23212 10.78977,0.12906 3.45145,-0.34941 6.65083,-1.00501 9.54673,-2.90772 -29.92091,21.80173 1.49088,-6.13246 16.07031,-9.76824 2.91156,-0.41867 5.8668,-0.55978 8.60883,0.204 2.64044,0.92315 4.80727,2.33097 6.78213,4.01595 1.80225,1.66555 4.21482,2.24026 7.01114,1.58136 2.78535,-0.70583 5.47478,-1.62674 7.82393,-3.17625 6.59715,-4.04804 1.7366,-1.0903 -14.28602,9.72419 -0.40162,0.27108 0.82099,-0.52488 1.20169,-0.81659 0.79025,-0.60556 1.54425,-1.24703 2.2486,-1.92164 0.38607,-0.36975 0.7218,-0.77275 1.08271,-1.15913 1.0407,-1.26925 2.35723,-2.61302 3.79067,-3.60846 6.48111,-4.5008 13.57963,-10.17932 21.24758,-13.98706 3.46045,-1.48001 7.17342,-2.52407 10.81748,-1.4888 2.68631,1.11553 
4.55828,2.90673 6.76966,4.52523 2.86155,1.18281 6.08358,1.47897 9.36484,0.8442 4.23603,-0.62924 8.47259,-1.25597 12.69906,-1.95848 3.04085,-0.49442 6.08389,-0.97132 9.12943,-1.43058 4.88835,-2.08058 5.93325,5.82436 3.09253,9.84284 z"
                   id="path5527"
                   style="fill:#000000;fill-opacity:1;stroke:none" />
                <path
                   sodipodi:nodetypes="cc"
                   inkscape:connector-curvature="0"
                   id="path5529"
                   d="M 201.19503,462.36875 C 145.97092,153.63584 516.01084,95.699204 541.69749,402.08029"
                   style="fill:none;stroke:#000000;stroke-width:7.18431473;stroke-linecap:butt;stroke-linejoin:miter;stroke-miterlimit:4;stroke-opacity:1;stroke-dasharray:none" />
                <text
                   transform="matrix(1.0675722,-6.4997257e-4,-5.4303689e-4,1.0639438,-25.171538,-24.597888)"
                   sodipodi:linespacing="125%"
                   id="text5539"
                   style="font-size:7.9027462px;font-style:normal;font-variant:normal;font-weight:normal;font-stretch:normal;text-align:start;line-height:125%;letter-spacing:0px;word-spacing:0px;writing-mode:lr-tb;text-anchor:start;fill:#000000;fill-opacity:1;stroke:none;font-family:Quando;-inkscape-font-specification:Quando"
                   xml:space="preserve"><textPath
                     style="font-size:29.32356071px"
                     id="textPath5545"
                     xlink:href="#path5529"><tspan
   x="-102.62161"
   y="151.24321"
   style="font-size:29.32356071px"
   id="tspan5543">Associação Software Livre Santa Catarina</tspan></textPath></text>
              </g>
            </g>
          </g>
        </g>
      </g>
    </g>
  </g>
  <metadata
     id="metadata39">
    <rdf:RDF>
      <cc:Work>
        <dc:format>image/svg+xml</dc:format>
        <dc:type
           rdf:resource="http://purl.org/dc/dcmitype/StillImage" />
        <cc:license
           rdf:resource="http://creativecommons.org/licenses/publicdomain/" />
        <dc:publisher>
          <cc:Agent
             rdf:about="http://openclipart.org/">
            <dc:title>Open Clip Art Library</dc:title>
          </cc:Agent>
        </dc:publisher>
        <dc:title />
        <dc:date>2006-12-31T15:15:11</dc:date>
        <dc:description>Blazon:  Quarterly argent and vert, a sword inverted Or within a laurel wreath counterchanged.
\n
\nTranslation:  White and green background divided into quarters with white being the upper left when looking at it.  There is an upside down gold sword inside of a laurel wreath that is opposite colors as the background.</dc:description>
        <dc:source>http://openclipart.org/detail/2672/glaedenfeld-device-by-rhysfaber</dc:source>
        <dc:creator>
          <cc:Agent>
            <dc:title>rhysfaber</dc:title>
          </cc:Agent>
        </dc:creator>
        <dc:subject>
          <rdf:Bag>
            <rdf:li>clip art</rdf:li>
            <rdf:li>clipart</rdf:li>
            <rdf:li>device</rdf:li>
            <rdf:li>device</rdf:li>
            <rdf:li>glaedenfeld</rdf:li>
            <rdf:li>glaedenfeld</rdf:li>
            <rdf:li>heraldry</rdf:li>
            <rdf:li>heraldry</rdf:li>
            <rdf:li>heraldy</rdf:li>
            <rdf:li>heraldy</rdf:li>
            <rdf:li>image</rdf:li>
            <rdf:li>media</rdf:li>
            <rdf:li>png</rdf:li>
            <rdf:li>public domain</rdf:li>
            <rdf:li>sca</rdf:li>
            <rdf:li>sca</rdf:li>
            <rdf:li>shield</rdf:li>
            <rdf:li>shield</rdf:li>
            <rdf:li>shire</rdf:li>
            <rdf:li>shire</rdf:li>
            <rdf:li>svg</rdf:li>
          </rdf:Bag>
        </dc:subject>
      </cc:Work>
      <cc:License
         rdf:about="http://creativecommons.org/licenses/publicdomain/">
        <cc:permits
           rdf:resource="http://creativecommons.org/ns#Reproduction" />
        <cc:permits
           rdf:resource="http://creativecommons.org/ns#Distribution" />
        <cc:permits
           rdf:resource="http://creativecommons.org/ns#DerivativeWorks" />
      </cc:License>
    </rdf:RDF>
  </metadata>
</svg>
